,
Brought to you by  http://www.scenetime.com/signup.php
 
 Hottest scene tracker on the net !!!   
 
No fake torrents from scenebalance 
shame on those who comment fake before downloading my torrents

    seed back for speed


 



...................................NFO:.................................................[img]http://img217.imageshack.us/img217/4295/redcover.jpg[/img]

[color=blue][size=5][b]Red.Riding.Hood.2011.R5.DVDRip.XVID.AC3.HQ.Hive-CM8[/b][/size][/color]


[b]Thx Hive

CM8 Doing It Right The First Time :D


Sources:

Video: Russian DVD-5  thx
Audio: Imagines TS-Line thx

Encode:

The R5 was not the greatest and has mostly dark scenes.
I brightened up the movie a bit,added sharpness,rgb and denoise.
Cleaned the Line from hiss and noise and synced it back to the r5 "lipsync".
So no oose spots ;)
Wanted to do 5.1 audio but wasnt possible since the dvd didnt have 5.1 russian audio.
still great release

enjoy

Video: 720x304 @bitrate 1800 2pass
Audio: English AC3 2.0 Stereo
Sample: yes included[/b]


[url]http://www.imdb.com/title/tt1486185/[/url]


General
Complete name                    : Red.Riding.Hood.2011.R5.DVDRip.XVID.AC3.HQ.Hive-CM8.avi
Format                           : AVI
Format/Info                      : Audio Video Interleave
File size                        : 1.38 GiB
Duration                         : 1h 35mn
Overall bit rate                 : 2 066 Kbps
Writing application              : Nandub v1.0rc2
Writing library                  : Nandub build 1853/release

Video
ID                               : 0
Format                           : MPEG-4 Visual
Format profile                   : Advanced Simple@L5
Format settings, BVOP            : 2
Format settings, QPel            : Yes
Format settings, GMC             : No warppoints
Format settings, Matrix          : Default (H.263)
Muxing mode                      : Packed bitstream
Codec ID                         : XVID
Codec ID/Hint                    : XviD
Duration                         : 1h 35mn
Bit rate                         : 1 801 Kbps
Width                            : 720 pixels
Height                           : 304 pixels
Display aspect ratio             : 2.35:1
Frame rate                       : 25.000 fps
Color space                      : YUV
Chroma subsampling               : 4:2:0
Bit depth                        : 8 bits
Scan type                        : Progressive
Compression mode                 : Lossy
Bits/(Pixel*Frame)               : 0.329
Stream size                      : 1.20 GiB (87%)
Writing library                  : XviD 1.2.1 (UTC 2008-12-04)

Audio
ID                               : 1
Format                           : AC-3
Format/Info                      : Audio Coding 3
Mode extension                   : CM (complete main)
Codec ID                         : 2000
Duration                         : 1h 35mn
Bit rate mode                    : Constant
Bit rate                         : 256 Kbps
Channel(s)                       : 2 channels
Channel positions                : Front: L R
Sampling rate                    : 48.0 KHz
Bit depth                        : 16 bits
Compression mode                 : Lossy
Delay relative to video          : 14ms
Stream size                      : 175 MiB (12%)
Alignment                        : Split accross interleaves
Interleave, duration             : 40 ms (1.00 video frame)
Interleave, preload duration     : 500 ms



Amanda Seyfried	 ... 	Valerie
Gary Oldman	... 	Father Solomon
Billy Burke	... 	Cesaire
Shiloh Fernandez	... 	Peter
Max Irons	... 	Henry Lazar
Virginia Madsen	... 	Suzette


Set in a medieval village that is haunted by a werewolf, a young girl falls 
for an orphaned woodcutter, much to her family's displeasure.  


[img]http://img192.imageshack.us/img192/8886/15526227.png[/img]
[img]http://img818.imageshack.us/img818/8278/reren.png[/img]
[img]http://img855.imageshack.us/img855/903/rerere.png[/img]
[img]http://img31.imageshack.us/img31/5543/rererereq.png[/img]
[img]http://img204.imageshack.us/img204/6026/rererreere.png[/img]
[img]http://img803.imageshack.us/img803/9413/rererrereere.png[/img]
[img]http://img863.imageshack.us/img863/5503/rererrerereere.png[/img]
[img]http://img821.imageshack.us/img821/994/rererrerereerere.png[/img]


dvd-cover+label

[img]http://img840.imageshack.us/img840/5798/redridinghooddvdcover.jpg[/img]

[img]http://img542.imageshack.us/img542/6176/redridinghood2011cdcove.jpg[/img]





Greetz

ViSiON,SANTi,MAGNET,THC,T0XiC,iNK,LKRG,IMAGiNE,WBZ,FLAWL3SS,NOVA
Vik,OneTwo,Rapeseed,D2U,SAFC,goldadvance,MEMORY100,KaN1vE,Unevano,Pinnz,Wayne,Mr Hive
and all P2P groups 
Great Work Guys :D

FYS

CM8@hushmail.com